<svg xmlns="http://www.w3.org/2000/svg" viewBox="0 0 24 24" fill="none">
  <path fill="#FFFFFF" d="M12 2.1c-5.46 0-9.9 4.44-9.9 9.9 0 1.74.45 3.37 1.24 4.79L2 22l5.39-1.29c1.35.74 2.9 1.16 4.61 1.16 5.46 0 9.9-4.44 9.9-9.9S17.46 2.1 12 2.1Zm0 17.64c-1.45 0-2.8-.39-3.96-1.07l-.28-.16-3.19.76.76-3.11-.17-.29A7.76 7.76 0 0 1 4.26 12 7.74 7.74 0 1 1 12 19.74Zm4.08-5.88c-.22-.11-1.31-.64-1.51-.71-.2-.07-.35-.11-.5.11-.15.22-.57.71-.7.86-.13.15-.26.17-.48.06-.22-.11-.93-.34-1.77-1.08-.66-.58-1.1-1.3-1.23-1.52-.13-.22-.01-.34.1-.45.1-.1.22-.26.33-.39.11-.13.15-.22.22-.37.07-.15.03-.28-.02-.39-.06-.11-.5-1.21-.69-1.66-.18-.44-.37-.38-.5-.39-.13-.01-.28-.01-.43-.01-.15 0-.39.06-.59.28-.2.22-.77.76-.77 1.85 0 1.09.79 2.15.9 2.3.11.15 1.55 2.37 3.76 3.32.53.23.94.36 1.26.46.53.17 1.01.15 1.39.09.42-.06 1.31-.54 1.49-1.07.18-.53.18-.98.13-1.07-.05-.09-.2-.15-.42-.26Z"/>
</svg>
